<mxfile host="app.diagrams.net" agent="Mozilla/5.0 (Windows NT 10.0; Win64; x64) AppleWebKit/537.36 (KHTML, like Gecko) Chrome/138.0.0.0 YaBrowser/25.8.0.0 Safari/537.36" version="28.2.7">
  <diagram id="C5RBs43oDa-KdzZeNtuy" name="Page-1">
    <mxGraphModel grid="1" page="1" gridSize="10" guides="1" tooltips="1" connect="1" arrows="1" fold="1" pageScale="1" pageWidth="827" pageHeight="1169" math="0" shadow="0">
      <root>
        <mxCell id="WIyWlLk6GJQsqaUBKTNV-0" />
        <mxCell id="WIyWlLk6GJQsqaUBKTNV-1" parent="WIyWlLk6GJQsqaUBKTNV-0" />
        <mxCell id="t0G7QF4fx1piLThFc2al-9" value="" style="rounded=0;whiteSpace=wrap;html=1;" vertex="1" parent="WIyWlLk6GJQsqaUBKTNV-1">
          <mxGeometry x="240" y="-80" width="270" height="900" as="geometry" />
        </mxCell>
        <mxCell id="0Z7Siutm5EeNNmNUfu3L-6" style="edgeStyle=orthogonalEdgeStyle;rounded=0;orthogonalLoop=1;jettySize=auto;html=1;" edge="1" parent="WIyWlLk6GJQsqaUBKTNV-1" source="0Z7Siutm5EeNNmNUfu3L-0" target="0Z7Siutm5EeNNmNUfu3L-3">
          <mxGeometry relative="1" as="geometry" />
        </mxCell>
        <mxCell id="0Z7Siutm5EeNNmNUfu3L-10" style="edgeStyle=orthogonalEdgeStyle;rounded=0;orthogonalLoop=1;jettySize=auto;html=1;" edge="1" parent="WIyWlLk6GJQsqaUBKTNV-1" source="0Z7Siutm5EeNNmNUfu3L-0" target="0Z7Siutm5EeNNmNUfu3L-9">
          <mxGeometry relative="1" as="geometry">
            <Array as="points">
              <mxPoint x="125" y="460" />
            </Array>
          </mxGeometry>
        </mxCell>
        <mxCell id="t0G7QF4fx1piLThFc2al-6" style="edgeStyle=orthogonalEdgeStyle;rounded=0;orthogonalLoop=1;jettySize=auto;html=1;entryX=0;entryY=0.5;entryDx=0;entryDy=0;" edge="1" parent="WIyWlLk6GJQsqaUBKTNV-1" source="0Z7Siutm5EeNNmNUfu3L-0" target="t0G7QF4fx1piLThFc2al-4">
          <mxGeometry relative="1" as="geometry" />
        </mxCell>
        <mxCell id="t0G7QF4fx1piLThFc2al-7" style="edgeStyle=orthogonalEdgeStyle;rounded=0;orthogonalLoop=1;jettySize=auto;html=1;entryX=0;entryY=0.5;entryDx=0;entryDy=0;" edge="1" parent="WIyWlLk6GJQsqaUBKTNV-1" source="0Z7Siutm5EeNNmNUfu3L-0" target="t0G7QF4fx1piLThFc2al-5">
          <mxGeometry relative="1" as="geometry" />
        </mxCell>
        <mxCell id="0Z7Siutm5EeNNmNUfu3L-0" value="Пользователь" style="shape=umlActor;verticalLabelPosition=bottom;verticalAlign=top;html=1;outlineConnect=0;" vertex="1" parent="WIyWlLk6GJQsqaUBKTNV-1">
          <mxGeometry x="110" y="270" width="30" height="60" as="geometry" />
        </mxCell>
        <mxCell id="t0G7QF4fx1piLThFc2al-1" style="edgeStyle=orthogonalEdgeStyle;rounded=0;orthogonalLoop=1;jettySize=auto;html=1;entryX=1;entryY=0.5;entryDx=0;entryDy=0;" edge="1" parent="WIyWlLk6GJQsqaUBKTNV-1" source="0Z7Siutm5EeNNmNUfu3L-1" target="t0G7QF4fx1piLThFc2al-0">
          <mxGeometry relative="1" as="geometry" />
        </mxCell>
        <mxCell id="t0G7QF4fx1piLThFc2al-12" style="edgeStyle=orthogonalEdgeStyle;rounded=0;orthogonalLoop=1;jettySize=auto;html=1;entryX=1;entryY=0.5;entryDx=0;entryDy=0;" edge="1" parent="WIyWlLk6GJQsqaUBKTNV-1" source="0Z7Siutm5EeNNmNUfu3L-1" target="t0G7QF4fx1piLThFc2al-11">
          <mxGeometry relative="1" as="geometry" />
        </mxCell>
        <mxCell id="0Z7Siutm5EeNNmNUfu3L-1" value="Менеджер" style="shape=umlActor;verticalLabelPosition=bottom;verticalAlign=top;html=1;outlineConnect=0;" vertex="1" parent="WIyWlLk6GJQsqaUBKTNV-1">
          <mxGeometry x="650" y="460" width="30" height="60" as="geometry" />
        </mxCell>
        <mxCell id="0Z7Siutm5EeNNmNUfu3L-8" style="edgeStyle=orthogonalEdgeStyle;rounded=0;orthogonalLoop=1;jettySize=auto;html=1;" edge="1" parent="WIyWlLk6GJQsqaUBKTNV-1" source="0Z7Siutm5EeNNmNUfu3L-2" target="0Z7Siutm5EeNNmNUfu3L-7">
          <mxGeometry relative="1" as="geometry">
            <Array as="points">
              <mxPoint x="105" y="30" />
            </Array>
          </mxGeometry>
        </mxCell>
        <mxCell id="0Z7Siutm5EeNNmNUfu3L-12" style="edgeStyle=orthogonalEdgeStyle;rounded=0;orthogonalLoop=1;jettySize=auto;html=1;" edge="1" parent="WIyWlLk6GJQsqaUBKTNV-1" source="0Z7Siutm5EeNNmNUfu3L-2" target="0Z7Siutm5EeNNmNUfu3L-11">
          <mxGeometry relative="1" as="geometry">
            <Array as="points">
              <mxPoint x="210" y="120" />
              <mxPoint x="210" y="120" />
            </Array>
          </mxGeometry>
        </mxCell>
        <mxCell id="0Z7Siutm5EeNNmNUfu3L-2" value="Разработчик" style="shape=umlActor;verticalLabelPosition=bottom;verticalAlign=top;html=1;outlineConnect=0;" vertex="1" parent="WIyWlLk6GJQsqaUBKTNV-1">
          <mxGeometry x="90" y="120" width="30" height="60" as="geometry" />
        </mxCell>
        <mxCell id="0Z7Siutm5EeNNmNUfu3L-3" value="Получение&amp;nbsp; подборки игр" style="ellipse;whiteSpace=wrap;html=1;" vertex="1" parent="WIyWlLk6GJQsqaUBKTNV-1">
          <mxGeometry x="310" y="320" width="120" height="80" as="geometry" />
        </mxCell>
        <mxCell id="0Z7Siutm5EeNNmNUfu3L-7" value="Добавление игры и её описания на платформу" style="ellipse;whiteSpace=wrap;html=1;" vertex="1" parent="WIyWlLk6GJQsqaUBKTNV-1">
          <mxGeometry x="310" y="-10" width="120" height="80" as="geometry" />
        </mxCell>
        <mxCell id="0Z7Siutm5EeNNmNUfu3L-9" value="Проставление оценок подборке игр" style="ellipse;whiteSpace=wrap;html=1;" vertex="1" parent="WIyWlLk6GJQsqaUBKTNV-1">
          <mxGeometry x="310" y="400" width="120" height="80" as="geometry" />
        </mxCell>
        <mxCell id="0Z7Siutm5EeNNmNUfu3L-11" value="Просмотр отчётности" style="ellipse;whiteSpace=wrap;html=1;" vertex="1" parent="WIyWlLk6GJQsqaUBKTNV-1">
          <mxGeometry x="310" y="80" width="120" height="80" as="geometry" />
        </mxCell>
        <mxCell id="0Z7Siutm5EeNNmNUfu3L-18" value="Просмотр непромодерированного контента" style="ellipse;whiteSpace=wrap;html=1;" vertex="1" parent="WIyWlLk6GJQsqaUBKTNV-1">
          <mxGeometry x="295" y="580" width="150" height="80" as="geometry" />
        </mxCell>
        <mxCell id="0Z7Siutm5EeNNmNUfu3L-19" style="edgeStyle=orthogonalEdgeStyle;rounded=0;orthogonalLoop=1;jettySize=auto;html=1;entryX=0.993;entryY=0.595;entryDx=0;entryDy=0;entryPerimeter=0;" edge="1" parent="WIyWlLk6GJQsqaUBKTNV-1" source="0Z7Siutm5EeNNmNUfu3L-1" target="0Z7Siutm5EeNNmNUfu3L-18">
          <mxGeometry relative="1" as="geometry" />
        </mxCell>
        <mxCell id="t0G7QF4fx1piLThFc2al-0" value="Контроль ключевых параметров работы системы" style="ellipse;whiteSpace=wrap;html=1;" vertex="1" parent="WIyWlLk6GJQsqaUBKTNV-1">
          <mxGeometry x="300" y="490" width="140" height="80" as="geometry" />
        </mxCell>
        <mxCell id="t0G7QF4fx1piLThFc2al-4" value="Регистрация на платформе" style="ellipse;whiteSpace=wrap;html=1;" vertex="1" parent="WIyWlLk6GJQsqaUBKTNV-1">
          <mxGeometry x="310" y="160" width="120" height="80" as="geometry" />
        </mxCell>
        <mxCell id="t0G7QF4fx1piLThFc2al-5" value="Указание игровых предпочтений" style="ellipse;whiteSpace=wrap;html=1;" vertex="1" parent="WIyWlLk6GJQsqaUBKTNV-1">
          <mxGeometry x="310" y="240" width="120" height="80" as="geometry" />
        </mxCell>
        <mxCell id="t0G7QF4fx1piLThFc2al-10" value="Игровая платформа" style="text;html=1;whiteSpace=wrap;strokeColor=none;fillColor=none;align=center;verticalAlign=middle;rounded=0;" vertex="1" parent="WIyWlLk6GJQsqaUBKTNV-1">
          <mxGeometry x="340" y="-70" width="60" height="30" as="geometry" />
        </mxCell>
        <mxCell id="t0G7QF4fx1piLThFc2al-11" value="Запуск анализа поведения игроков" style="ellipse;whiteSpace=wrap;html=1;" vertex="1" parent="WIyWlLk6GJQsqaUBKTNV-1">
          <mxGeometry x="315" y="670" width="120" height="80" as="geometry" />
        </mxCell>
      </root>
    </mxGraphModel>
  </diagram>
</mxfile>
